<svg width="375" height="812" viewBox="0 0 375 812" fill="none" xmlns="http://www.w3.org/2000/svg">
<g clip-path="url(#clip0_4_2335)">
<rect width="375" height="812" fill="#F2F3F5"/>
<mask id="mask0_4_2335" style="mask-type:alpha" maskUnits="userSpaceOnUse" x="0" y="0" width="376" height="473">
<rect x="0.000244141" y="0.00012207" width="375" height="472" fill="#F2F3F5"/>
</mask>
<g mask="url(#mask0_4_2335)">
<path d="M110.321 228.799C55.9047 163.351 -24.5765 229.401 -100.921 137.578C-212.46 3.42525 -142.341 -223.414 -97.3452 -292.728C-70.2766 -327.247 -8.81058 -412.114 51.5029 -328.931C130.865 -219.476 135.025 -133.053 208.038 -78.4288C270.774 -31.4933 453.272 71.8275 479.521 185.864C509.902 317.85 454.286 431.936 397.38 519.598C320.622 637.839 200.848 582.467 153.71 489.469C106.572 396.471 164.737 294.247 110.321 228.799Z" stroke="black" stroke-opacity="0.07"/>
<path d="M167.277 163.557C122.872 110.149 33.8567 164.354 -28.4436 89.4231C-119.464 -20.0505 -62.1185 -205.353 -22.7792 -265.953C0.733979 -296.316 54.2642 -370.764 103.256 -302.536C167.721 -212.759 177.002 -115.035 243.605 -73.2701C298.621 -38.7715 465.142 57.0488 489.346 152.94C517.072 262.782 468.299 369.298 418.546 445.939C351.438 549.315 261.57 527.652 223.874 450.575C186.179 373.498 211.683 216.966 167.277 163.557Z" stroke="black" stroke-opacity="0.07"/>
<path d="M196.206 129.395C135.576 56.4725 69.0594 104.209 27.1048 53.749C-34.1905 -19.9734 5.09733 -145.793 31.8738 -187.041C47.8627 -207.726 84.2773 -258.425 117.245 -212.44C160.626 -151.933 201.063 -58.5173 257.395 -20.529C306.726 12.738 433.339 110.214 454.185 177.773C476.717 250.798 436.099 329.501 402.234 381.668C356.557 452.031 290.314 458.141 265.012 406.107C239.711 354.072 256.836 202.317 196.206 129.395Z" stroke="black" stroke-opacity="0.07"/>
<path d="M177.319 80.0848C139.68 34.8146 91.9595 64.3076 64.008 30.6892C23.1711 -18.427 38.7723 -97.8465 55.2464 -123.224C65.1568 -135.862 91.9925 -161.724 114.075 -131.269C143.131 -91.195 158.239 -3.30999 198.453 14.3575C232.85 29.4696 214.958 125.355 177.319 80.0848Z" stroke="black" stroke-opacity="0.07"/>
<path d="M393.814 337.015C365.712 380.306 326.198 377.261 308.94 343.212C290.531 306.893 226.854 96.4848 287.228 100.4C319.828 102.514 388.861 147.843 407.455 197.832C424.859 244.625 414.649 304.92 393.814 337.015Z" stroke="black" stroke-opacity="0.07"/>
</g>
</g>
<defs>
<clipPath id="clip0_4_2335">
<rect width="375" height="812" fill="white"/>
</clipPath>
</defs>
</svg>
