<svg width="49" height="53" viewBox="0 0 49 53" fill="none" xmlns="http://www.w3.org/2000/svg">
<ellipse cx="24.5" cy="26.3278" rx="24" ry="25.8278" fill="#F2FAF7" stroke="#E9F7F2"/>
<path d="M15.5 34.9371L15.6354 34.0003C15.8096 32.7954 16.5074 31.7197 17.6289 31.2463C18.934 30.6953 20.8468 30.0806 22.8846 30.0806C24.9224 30.0806 26.8352 30.6953 28.1403 31.2463C29.2618 31.7197 29.9597 32.7954 30.1338 34.0003L30.2692 34.9371" stroke="#00A385" stroke-width="1.6" stroke-linecap="round" stroke-linejoin="round"/>
<path d="M31.7036 23.8195V28.1349" stroke="#00A385" stroke-width="1.5" stroke-linecap="round" stroke-linejoin="round"/>
<path d="M33.7497 25.977H29.6597" stroke="#00A385" stroke-width="1.5" stroke-linecap="round" stroke-linejoin="round"/>
<path d="M22.8848 26.5485C25.1506 26.5485 26.9874 24.5719 26.9874 22.1335C26.9874 19.6952 25.1506 17.7185 22.8848 17.7185C20.619 17.7185 18.7822 19.6952 18.7822 22.1335C18.7822 24.5719 20.619 26.5485 22.8848 26.5485Z" stroke="#00A385" stroke-width="1.6" stroke-linecap="round" stroke-linejoin="round"/>
</svg>
