<svg width="49" height="49" viewBox="0 0 49 49" fill="none" xmlns="http://www.w3.org/2000/svg">
<circle cx="24.5" cy="24.5" r="24" fill="#F2FAF7" stroke="#E9F7F2"/>
<path d="M17.5 32.5001L17.6067 31.8143C17.7985 30.581 18.5395 29.492 19.7035 29.0414C21.0063 28.5372 22.8853 27.9873 24.8846 27.9873C26.8839 27.9873 28.7629 28.5372 30.0657 29.0414C31.2297 29.492 31.9707 30.581 32.1625 31.8143L32.2692 32.5001" stroke="#00A385" stroke-width="1.6" stroke-linecap="round" stroke-linejoin="round"/>
<path d="M24.8848 24.7051C27.1506 24.7051 28.9874 22.8683 28.9874 20.6026C28.9874 18.3368 27.1506 16.5 24.8848 16.5C22.619 16.5 20.7822 18.3368 20.7822 20.6026C20.7822 22.8683 22.619 24.7051 24.8848 24.7051Z" stroke="#00A385" stroke-width="1.6" stroke-linecap="round" stroke-linejoin="round"/>
</svg>
