<svg width="163" height="136" viewBox="0 0 163 136" fill="none" xmlns="http://www.w3.org/2000/svg">
<rect width="163" height="136" rx="16" fill="white"/>
<path d="M53.2436 94H52.1868C52.1243 93.696 52.0149 93.429 51.8587 93.1989C51.7053 92.9688 51.5178 92.7756 51.2962 92.6193C51.0774 92.4602 50.8345 92.3409 50.5675 92.2614C50.3004 92.1818 50.022 92.142 49.7322 92.142C49.2038 92.142 48.7251 92.2756 48.2962 92.5426C47.87 92.8097 47.5305 93.2031 47.2777 93.723C47.0277 94.2429 46.9027 94.8807 46.9027 95.6364C46.9027 96.392 47.0277 97.0298 47.2777 97.5497C47.5305 98.0696 47.87 98.4631 48.2962 98.7301C48.7251 98.9972 49.2038 99.1307 49.7322 99.1307C50.022 99.1307 50.3004 99.0909 50.5675 99.0114C50.8345 98.9318 51.0774 98.8139 51.2962 98.6577C51.5178 98.4986 51.7053 98.304 51.8587 98.0739C52.0149 97.8409 52.1243 97.5739 52.1868 97.2727H53.2436C53.1641 97.7187 53.0192 98.1179 52.8089 98.4702C52.5987 98.8224 52.3374 99.1222 52.0249 99.3693C51.7124 99.6136 51.3615 99.7997 50.9723 99.9276C50.5859 100.055 50.1726 100.119 49.7322 100.119C48.9879 100.119 48.326 99.9375 47.7464 99.5739C47.1669 99.2102 46.7109 98.6932 46.3786 98.0227C46.0462 97.3523 45.88 96.5568 45.88 95.6364C45.88 94.7159 46.0462 93.9205 46.3786 93.25C46.7109 92.5795 47.1669 92.0625 47.7464 91.6989C48.326 91.3352 48.9879 91.1534 49.7322 91.1534C50.1726 91.1534 50.5859 91.2173 50.9723 91.3452C51.3615 91.473 51.7124 91.6605 52.0249 91.9077C52.3374 92.152 52.5987 92.4503 52.8089 92.8026C53.0192 93.152 53.1641 93.5511 53.2436 94ZM57.4741 100.136C56.8832 100.136 56.3647 99.9957 55.9187 99.7145C55.4755 99.4332 55.1289 99.0398 54.8789 98.5341C54.6317 98.0284 54.5082 97.4375 54.5082 96.7614C54.5082 96.0795 54.6317 95.4844 54.8789 94.9759C55.1289 94.4673 55.4755 94.0724 55.9187 93.7912C56.3647 93.5099 56.8832 93.3693 57.4741 93.3693C58.065 93.3693 58.582 93.5099 59.0252 93.7912C59.4712 94.0724 59.8178 94.4673 60.065 94.9759C60.315 95.4844 60.44 96.0795 60.44 96.7614C60.44 97.4375 60.315 98.0284 60.065 98.5341C59.8178 99.0398 59.4712 99.4332 59.0252 99.7145C58.582 99.9957 58.065 100.136 57.4741 100.136ZM57.4741 99.233C57.9229 99.233 58.2923 99.1179 58.582 98.8878C58.8718 98.6577 59.0863 98.3551 59.2255 97.9801C59.3647 97.6051 59.4343 97.1989 59.4343 96.7614C59.4343 96.3239 59.3647 95.9162 59.2255 95.5384C59.0863 95.1605 58.8718 94.8551 58.582 94.6222C58.2923 94.3892 57.9229 94.2727 57.4741 94.2727C57.0252 94.2727 56.6559 94.3892 56.3661 94.6222C56.0763 94.8551 55.8619 95.1605 55.7227 95.5384C55.5835 95.9162 55.5138 96.3239 55.5138 96.7614C55.5138 97.1989 55.5835 97.6051 55.7227 97.9801C55.8619 98.3551 56.0763 98.6577 56.3661 98.8878C56.6559 99.1179 57.0252 99.233 57.4741 99.233ZM61.9751 100V93.4545H62.9467V94.4773H63.032C63.1683 94.1278 63.3885 93.8565 63.6925 93.6634C63.9964 93.4673 64.3615 93.3693 64.7876 93.3693C65.2195 93.3693 65.5788 93.4673 65.8658 93.6634C66.1555 93.8565 66.3814 94.1278 66.5433 94.4773H66.6115C66.7791 94.1392 67.0305 93.8707 67.3658 93.6719C67.701 93.4702 68.103 93.3693 68.5717 93.3693C69.157 93.3693 69.6357 93.5526 70.0078 93.919C70.38 94.2827 70.5661 94.8494 70.5661 95.6193V100H69.5604V95.6193C69.5604 95.1364 69.4283 94.7912 69.1641 94.5838C68.8999 94.3764 68.5888 94.2727 68.2308 94.2727C67.7706 94.2727 67.4141 94.4119 67.1612 94.6903C66.9084 94.9659 66.782 95.3153 66.782 95.7386V100H65.7592V95.517C65.7592 95.1449 65.6385 94.8452 65.397 94.6179C65.1555 94.3878 64.8445 94.2727 64.4638 94.2727C64.2024 94.2727 63.9581 94.3423 63.7308 94.4815C63.5064 94.6207 63.3246 94.8139 63.1854 95.0611C63.049 95.3054 62.9808 95.5881 62.9808 95.9091V100H61.9751ZM72.4048 100V93.4545H73.3764V94.4773H73.4616C73.598 94.1278 73.8182 93.8565 74.1222 93.6634C74.4261 93.4673 74.7912 93.3693 75.2173 93.3693C75.6491 93.3693 76.0085 93.4673 76.2955 93.6634C76.5852 93.8565 76.8111 94.1278 76.973 94.4773H77.0412C77.2088 94.1392 77.4602 93.8707 77.7955 93.6719C78.1307 93.4702 78.5327 93.3693 79.0014 93.3693C79.5866 93.3693 80.0653 93.5526 80.4375 93.919C80.8097 94.2827 80.9957 94.8494 80.9957 95.6193V100H79.9901V95.6193C79.9901 95.1364 79.858 94.7912 79.5938 94.5838C79.3295 94.3764 79.0185 94.2727 78.6605 94.2727C78.2003 94.2727 77.8438 94.4119 77.5909 94.6903C77.3381 94.9659 77.2116 95.3153 77.2116 95.7386V100H76.1889V95.517C76.1889 95.1449 76.0682 94.8452 75.8267 94.6179C75.5852 94.3878 75.2741 94.2727 74.8935 94.2727C74.6321 94.2727 74.3878 94.3423 74.1605 94.4815C73.9361 94.6207 73.7543 94.8139 73.6151 95.0611C73.4787 95.3054 73.4105 95.5881 73.4105 95.9091V100H72.4048ZM85.4936 100.136C84.9027 100.136 84.3842 99.9957 83.9382 99.7145C83.495 99.4332 83.1484 99.0398 82.8984 98.5341C82.6513 98.0284 82.5277 97.4375 82.5277 96.7614C82.5277 96.0795 82.6513 95.4844 82.8984 94.9759C83.1484 94.4673 83.495 94.0724 83.9382 93.7912C84.3842 93.5099 84.9027 93.3693 85.4936 93.3693C86.0845 93.3693 86.6016 93.5099 87.0447 93.7912C87.4908 94.0724 87.8374 94.4673 88.0845 94.9759C88.3345 95.4844 88.4595 96.0795 88.4595 96.7614C88.4595 97.4375 88.3345 98.0284 88.0845 98.5341C87.8374 99.0398 87.4908 99.4332 87.0447 99.7145C86.6016 99.9957 86.0845 100.136 85.4936 100.136ZM85.4936 99.233C85.9425 99.233 86.3118 99.1179 86.6016 98.8878C86.8913 98.6577 87.1058 98.3551 87.245 97.9801C87.3842 97.6051 87.4538 97.1989 87.4538 96.7614C87.4538 96.3239 87.3842 95.9162 87.245 95.5384C87.1058 95.1605 86.8913 94.8551 86.6016 94.6222C86.3118 94.3892 85.9425 94.2727 85.4936 94.2727C85.0447 94.2727 84.6754 94.3892 84.3857 94.6222C84.0959 94.8551 83.8814 95.1605 83.7422 95.5384C83.603 95.9162 83.5334 96.3239 83.5334 96.7614C83.5334 97.1989 83.603 97.6051 83.7422 97.9801C83.8814 98.3551 84.0959 98.6577 84.3857 98.8878C84.6754 99.1179 85.0447 99.233 85.4936 99.233ZM92.4663 100.136C91.9208 100.136 91.4393 99.9986 91.0217 99.723C90.604 99.4446 90.2773 99.0526 90.0415 98.5469C89.8058 98.0384 89.6879 97.4375 89.6879 96.7443C89.6879 96.0568 89.8058 95.4602 90.0415 94.9545C90.2773 94.4489 90.6055 94.0582 91.0259 93.7827C91.4464 93.5071 91.9322 93.3693 92.4833 93.3693C92.9094 93.3693 93.2461 93.4403 93.4933 93.5824C93.7433 93.7216 93.9336 93.8807 94.0643 94.0597C94.1978 94.2358 94.3015 94.3807 94.3754 94.4943H94.4606V91.2727H95.4663V100H94.4947V98.9943H94.3754C94.3015 99.1136 94.1964 99.2642 94.06 99.446C93.9237 99.625 93.729 99.7855 93.4762 99.9276C93.2234 100.067 92.8867 100.136 92.4663 100.136ZM92.6026 99.233C93.006 99.233 93.3469 99.1278 93.6254 98.9176C93.9038 98.7045 94.1154 98.4105 94.2603 98.0355C94.4052 97.6577 94.4776 97.2216 94.4776 96.7273C94.4776 96.2386 94.4066 95.8111 94.2646 95.4446C94.1225 95.0753 93.9123 94.7884 93.6339 94.5838C93.3555 94.3764 93.0117 94.2727 92.6026 94.2727C92.1765 94.2727 91.8214 94.3821 91.5373 94.6009C91.256 94.8168 91.0444 95.1108 90.9023 95.483C90.7631 95.8523 90.6935 96.267 90.6935 96.7273C90.6935 97.1932 90.7646 97.6165 90.9066 97.9972C91.0515 98.375 91.2646 98.6761 91.5458 98.9006C91.8299 99.1222 92.1822 99.233 92.6026 99.233ZM97.4478 100V93.4545H98.4535V100H97.4478ZM97.9592 92.3636C97.7631 92.3636 97.5941 92.2969 97.4521 92.1634C97.3129 92.0298 97.2433 91.8693 97.2433 91.6818C97.2433 91.4943 97.3129 91.3338 97.4521 91.2003C97.5941 91.0668 97.7631 91 97.9592 91C98.1552 91 98.3228 91.0668 98.462 91.2003C98.604 91.3338 98.6751 91.4943 98.6751 91.6818C98.6751 91.8693 98.604 92.0298 98.462 92.1634C98.3228 92.2969 98.1552 92.3636 97.9592 92.3636ZM103.142 93.4545V94.3068H99.75V93.4545H103.142ZM100.739 91.8864H101.744V98.125C101.744 98.4091 101.786 98.6222 101.868 98.7642C101.953 98.9034 102.061 98.9972 102.192 99.0455C102.325 99.0909 102.466 99.1136 102.614 99.1136C102.724 99.1136 102.815 99.108 102.886 99.0966C102.957 99.0824 103.014 99.071 103.057 99.0625L103.261 99.9659C103.193 99.9915 103.098 100.017 102.976 100.043C102.854 100.071 102.699 100.085 102.511 100.085C102.227 100.085 101.949 100.024 101.676 99.902C101.406 99.7798 101.182 99.5938 101.003 99.3438C100.827 99.0938 100.739 98.7784 100.739 98.3977V91.8864ZM104.655 100V93.4545H105.661V100H104.655ZM105.166 92.3636C104.97 92.3636 104.801 92.2969 104.659 92.1634C104.52 92.0298 104.45 91.8693 104.45 91.6818C104.45 91.4943 104.52 91.3338 104.659 91.2003C104.801 91.0668 104.97 91 105.166 91C105.362 91 105.53 91.0668 105.669 91.2003C105.811 91.3338 105.882 91.4943 105.882 91.6818C105.882 91.8693 105.811 92.0298 105.669 92.1634C105.53 92.2969 105.362 92.3636 105.166 92.3636ZM110.247 100.136C109.616 100.136 109.072 99.9972 108.615 99.7188C108.16 99.4375 107.809 99.0455 107.562 98.5426C107.318 98.0369 107.196 97.4489 107.196 96.7784C107.196 96.108 107.318 95.517 107.562 95.0057C107.809 94.4915 108.153 94.0909 108.593 93.804C109.037 93.5142 109.554 93.3693 110.145 93.3693C110.485 93.3693 110.822 93.4261 111.154 93.5398C111.487 93.6534 111.789 93.8381 112.062 94.0938C112.335 94.3466 112.552 94.6818 112.714 95.0994C112.876 95.517 112.957 96.0312 112.957 96.642V97.0682H107.912V96.1989H111.934C111.934 95.8295 111.86 95.5 111.713 95.2102C111.568 94.9205 111.36 94.6918 111.091 94.5241C110.824 94.3565 110.508 94.2727 110.145 94.2727C109.744 94.2727 109.397 94.3722 109.105 94.571C108.815 94.767 108.592 95.0227 108.436 95.3381C108.279 95.6534 108.201 95.9915 108.201 96.3523V96.9318C108.201 97.4261 108.287 97.8452 108.457 98.1889C108.63 98.5298 108.87 98.7898 109.177 98.9688C109.484 99.1449 109.841 99.233 110.247 99.233C110.511 99.233 110.75 99.196 110.963 99.1222C111.179 99.0455 111.365 98.9318 111.521 98.7812C111.677 98.6278 111.798 98.4375 111.883 98.2102L112.855 98.483C112.752 98.8125 112.581 99.1023 112.339 99.3523C112.098 99.5994 111.799 99.7926 111.444 99.9318C111.089 100.068 110.69 100.136 110.247 100.136ZM119.123 94.9205L118.22 95.1761C118.163 95.0256 118.079 94.8793 117.968 94.7372C117.86 94.5923 117.713 94.473 117.525 94.3793C117.338 94.2855 117.098 94.2386 116.805 94.2386C116.404 94.2386 116.071 94.331 115.804 94.5156C115.539 94.6974 115.407 94.929 115.407 95.2102C115.407 95.4602 115.498 95.6577 115.68 95.8026C115.862 95.9474 116.146 96.0682 116.532 96.1648L117.504 96.4034C118.089 96.5455 118.525 96.7628 118.812 97.0554C119.099 97.3452 119.243 97.7187 119.243 98.1761C119.243 98.5511 119.135 98.8864 118.919 99.1818C118.706 99.4773 118.407 99.7102 118.024 99.8807C117.64 100.051 117.194 100.136 116.686 100.136C116.018 100.136 115.466 99.9915 115.028 99.7017C114.591 99.4119 114.314 98.9886 114.197 98.4318L115.152 98.1932C115.243 98.5455 115.414 98.8097 115.667 98.9858C115.923 99.1619 116.257 99.25 116.669 99.25C117.137 99.25 117.51 99.1506 117.785 98.9517C118.064 98.75 118.203 98.5085 118.203 98.2273C118.203 98 118.123 97.8097 117.964 97.6562C117.805 97.5 117.561 97.3835 117.231 97.3068L116.14 97.0511C115.541 96.9091 115.1 96.6889 114.819 96.3906C114.541 96.0895 114.402 95.7131 114.402 95.2614C114.402 94.892 114.505 94.5653 114.713 94.2812C114.923 93.9972 115.208 93.7741 115.569 93.6122C115.933 93.4503 116.345 93.3693 116.805 93.3693C117.453 93.3693 117.961 93.5114 118.331 93.7955C118.703 94.0795 118.967 94.4545 119.123 94.9205Z" fill="#606773"/>
<g opacity="0.64">
<rect x="92.0002" y="34" width="44.0001" height="44.0001" rx="22" fill="#E2ED5C"/>
<path d="M115.41 45.4585H111.662C111.268 45.4585 110.918 45.7103 110.793 46.0839L107.493 55.9319C107.294 56.5258 107.736 57.1399 108.362 57.1399H111.087C111.677 57.1399 112.114 57.6892 111.98 58.2639L110.253 65.7024C110.026 66.6802 111.309 67.2593 111.892 66.442L120.301 54.6495C120.733 54.0427 120.3 53.2007 119.554 53.2007H115.08C114.435 53.2007 113.992 52.5527 114.226 51.9518L116.265 46.7073C116.498 46.1064 116.055 45.4585 115.41 45.4585Z" fill="#06070A"/>
</g>
<g opacity="0.63">
<rect x="32.0002" y="34" width="43.9999" height="43.9999" rx="22" fill="#F7D16D"/>
<path d="M61.6772 57.8684C61.6772 51.1455 54.2073 45.9165 54.2073 45.9165C54.2073 45.9165 46.7373 51.1455 46.7373 57.8684C46.7373 59.8496 47.5243 61.7496 48.9252 63.1505C50.3261 64.5514 52.2261 65.3384 54.2073 65.3384C56.1884 65.3384 58.0884 64.5514 59.4893 63.1505C60.8902 61.7496 61.6772 59.8496 61.6772 57.8684Z" fill="#606773"/>
<path d="M58.6895 57.8684C58.6895 59.0571 58.2173 60.1971 57.3768 61.0376C56.5362 61.8782 55.3962 62.3504 54.2075 62.3504" stroke="#C1C4CB" stroke-width="1.375" stroke-linecap="round" stroke-linejoin="round"/>
</g>
<rect x="60" y="32" width="47.9999" height="47.9999" rx="24" fill="#CB9655"/>
<path d="M86.382 47.5H81.618C81.2393 47.5 80.893 47.714 80.7236 48.0528L78.2236 53.0528C77.8912 53.7177 78.3747 54.5 79.118 54.5H88.882C89.6253 54.5 90.1088 53.7177 89.7764 53.0528L87.2764 48.0528C87.107 47.714 86.7607 47.5 86.382 47.5Z" fill="white"/>
<path d="M79.382 57H74.618C74.2393 57 73.893 57.214 73.7236 57.5528L71.2236 62.5528C70.8912 63.2177 71.3747 64 72.118 64H81.882C82.6253 64 83.1088 63.2177 82.7764 62.5528L80.2764 57.5528C80.107 57.214 79.7607 57 79.382 57Z" fill="white"/>
<path d="M93.382 57H88.618C88.2393 57 87.893 57.214 87.7236 57.5528L85.2236 62.5528C84.8912 63.2177 85.3747 64 86.118 64H95.882C96.6253 64 97.1088 63.2177 96.7764 62.5528L94.2764 57.5528C94.107 57.214 93.7607 57 93.382 57Z" fill="white"/>
</svg>
