<svg width="164" height="136" viewBox="0 0 164 136" fill="none" xmlns="http://www.w3.org/2000/svg">
<rect width="164" height="136" rx="16" fill="white"/>
<path d="M40.4936 94H39.4368C39.3743 93.696 39.2649 93.429 39.1087 93.1989C38.9553 92.9688 38.7678 92.7756 38.5462 92.6193C38.3274 92.4602 38.0845 92.3409 37.8175 92.2614C37.5504 92.1818 37.272 92.142 36.9822 92.142C36.4538 92.142 35.9751 92.2756 35.5462 92.5426C35.12 92.8097 34.7805 93.2031 34.5277 93.723C34.2777 94.2429 34.1527 94.8807 34.1527 95.6364C34.1527 96.392 34.2777 97.0298 34.5277 97.5497C34.7805 98.0696 35.12 98.4631 35.5462 98.7301C35.9751 98.9972 36.4538 99.1307 36.9822 99.1307C37.272 99.1307 37.5504 99.0909 37.8175 99.0114C38.0845 98.9318 38.3274 98.8139 38.5462 98.6577C38.7678 98.4986 38.9553 98.304 39.1087 98.0739C39.2649 97.8409 39.3743 97.5739 39.4368 97.2727H40.4936C40.4141 97.7187 40.2692 98.1179 40.0589 98.4702C39.8487 98.8224 39.5874 99.1222 39.2749 99.3693C38.9624 99.6136 38.6115 99.7997 38.2223 99.9276C37.8359 100.055 37.4226 100.119 36.9822 100.119C36.2379 100.119 35.576 99.9375 34.9964 99.5739C34.4169 99.2102 33.9609 98.6932 33.6286 98.0227C33.2962 97.3523 33.13 96.5568 33.13 95.6364C33.13 94.7159 33.2962 93.9205 33.6286 93.25C33.9609 92.5795 34.4169 92.0625 34.9964 91.6989C35.576 91.3352 36.2379 91.1534 36.9822 91.1534C37.4226 91.1534 37.8359 91.2173 38.2223 91.3452C38.6115 91.473 38.9624 91.6605 39.2749 91.9077C39.5874 92.152 39.8487 92.4503 40.0589 92.8026C40.2692 93.152 40.4141 93.5511 40.4936 94ZM42.065 100V93.4545H43.0366V94.4432H43.1048C43.2241 94.1193 43.44 93.8565 43.7525 93.6548C44.065 93.4531 44.4173 93.3523 44.8093 93.3523C44.8832 93.3523 44.9755 93.3537 45.0863 93.3565C45.1971 93.3594 45.2809 93.3636 45.3377 93.3693V94.392C45.3036 94.3835 45.2255 94.3707 45.1033 94.3537C44.984 94.3338 44.8576 94.3239 44.7241 94.3239C44.4059 94.3239 44.1218 94.3906 43.8718 94.5241C43.6246 94.6548 43.4286 94.8366 43.2837 95.0696C43.1417 95.2997 43.0707 95.5625 43.0707 95.858V100H42.065ZM48.9897 100.136C48.3988 100.136 47.8803 99.9957 47.4343 99.7145C46.9911 99.4332 46.6445 99.0398 46.3945 98.5341C46.1474 98.0284 46.0238 97.4375 46.0238 96.7614C46.0238 96.0795 46.1474 95.4844 46.3945 94.9759C46.6445 94.4673 46.9911 94.0724 47.4343 93.7912C47.8803 93.5099 48.3988 93.3693 48.9897 93.3693C49.5806 93.3693 50.0977 93.5099 50.5408 93.7912C50.9869 94.0724 51.3335 94.4673 51.5806 94.9759C51.8306 95.4844 51.9556 96.0795 51.9556 96.7614C51.9556 97.4375 51.8306 98.0284 51.5806 98.5341C51.3335 99.0398 50.9869 99.4332 50.5408 99.7145C50.0977 99.9957 49.5806 100.136 48.9897 100.136ZM48.9897 99.233C49.4386 99.233 49.8079 99.1179 50.0977 98.8878C50.3874 98.6577 50.6019 98.3551 50.7411 97.9801C50.8803 97.6051 50.9499 97.1989 50.9499 96.7614C50.9499 96.3239 50.8803 95.9162 50.7411 95.5384C50.6019 95.1605 50.3874 94.8551 50.0977 94.6222C49.8079 94.3892 49.4386 94.2727 48.9897 94.2727C48.5408 94.2727 48.1715 94.3892 47.8817 94.6222C47.592 94.8551 47.3775 95.1605 47.2383 95.5384C47.0991 95.9162 47.0295 96.3239 47.0295 96.7614C47.0295 97.1989 47.0991 97.6051 47.2383 97.9801C47.3775 98.3551 47.592 98.6577 47.8817 98.8878C48.1715 99.1179 48.5408 99.233 48.9897 99.233ZM54.7511 100L52.7567 93.4545H53.8136L55.2283 98.4659H55.2965L56.6942 93.4545H57.7681L59.1488 98.4489H59.217L60.6317 93.4545H61.6886L59.6942 100H58.7056L57.2738 94.9716H57.1715L55.7397 100H54.7511ZM65.267 100.136C64.7216 100.136 64.2401 99.9986 63.8224 99.723C63.4048 99.4446 63.0781 99.0526 62.8423 98.5469C62.6065 98.0384 62.4886 97.4375 62.4886 96.7443C62.4886 96.0568 62.6065 95.4602 62.8423 94.9545C63.0781 94.4489 63.4063 94.0582 63.8267 93.7827C64.2472 93.5071 64.733 93.3693 65.2841 93.3693C65.7102 93.3693 66.0469 93.4403 66.294 93.5824C66.544 93.7216 66.7344 93.8807 66.8651 94.0597C66.9986 94.2358 67.1023 94.3807 67.1761 94.4943H67.2614V91.2727H68.267V100H67.2955V98.9943H67.1761C67.1023 99.1136 66.9972 99.2642 66.8608 99.446C66.7244 99.625 66.5298 99.7855 66.277 99.9276C66.0241 100.067 65.6875 100.136 65.267 100.136ZM65.4034 99.233C65.8068 99.233 66.1477 99.1278 66.4261 98.9176C66.7045 98.7045 66.9162 98.4105 67.0611 98.0355C67.206 97.6577 67.2784 97.2216 67.2784 96.7273C67.2784 96.2386 67.2074 95.8111 67.0653 95.4446C66.9233 95.0753 66.7131 94.7884 66.4347 94.5838C66.1563 94.3764 65.8125 94.2727 65.4034 94.2727C64.9773 94.2727 64.6222 94.3821 64.3381 94.6009C64.0568 94.8168 63.8452 95.1108 63.7031 95.483C63.5639 95.8523 63.4943 96.267 63.4943 96.7273C63.4943 97.1932 63.5653 97.6165 63.7074 97.9972C63.8523 98.375 64.0653 98.6761 64.3466 98.9006C64.6307 99.1222 64.983 99.233 65.4034 99.233ZM73.6236 100V93.4545H74.5952V94.4432H74.6634C74.7827 94.1193 74.9986 93.8565 75.3111 93.6548C75.6236 93.4531 75.9759 93.3523 76.3679 93.3523C76.4418 93.3523 76.5341 93.3537 76.6449 93.3565C76.7557 93.3594 76.8395 93.3636 76.8963 93.3693V94.392C76.8622 94.3835 76.7841 94.3707 76.6619 94.3537C76.5426 94.3338 76.4162 94.3239 76.2827 94.3239C75.9645 94.3239 75.6804 94.3906 75.4304 94.5241C75.1832 94.6548 74.9872 94.8366 74.8423 95.0696C74.7003 95.2997 74.6293 95.5625 74.6293 95.858V100H73.6236ZM80.6335 100.136C80.0028 100.136 79.4588 99.9972 79.0014 99.7188C78.5469 99.4375 78.196 99.0455 77.9489 98.5426C77.7045 98.0369 77.5824 97.4489 77.5824 96.7784C77.5824 96.108 77.7045 95.517 77.9489 95.0057C78.196 94.4915 78.5398 94.0909 78.9801 93.804C79.4233 93.5142 79.9403 93.3693 80.5312 93.3693C80.8722 93.3693 81.2088 93.4261 81.5412 93.5398C81.8736 93.6534 82.1761 93.8381 82.4489 94.0938C82.7216 94.3466 82.9389 94.6818 83.1009 95.0994C83.2628 95.517 83.3438 96.0312 83.3438 96.642V97.0682H78.2983V96.1989H82.321C82.321 95.8295 82.2472 95.5 82.0994 95.2102C81.9545 94.9205 81.7472 94.6918 81.4773 94.5241C81.2102 94.3565 80.8949 94.2727 80.5312 94.2727C80.1307 94.2727 79.7841 94.3722 79.4915 94.571C79.2017 94.767 78.9787 95.0227 78.8224 95.3381C78.6662 95.6534 78.5881 95.9915 78.5881 96.3523V96.9318C78.5881 97.4261 78.6733 97.8452 78.8438 98.1889C79.017 98.5298 79.2571 98.7898 79.5639 98.9688C79.8707 99.1449 80.2273 99.233 80.6335 99.233C80.8977 99.233 81.1364 99.196 81.3494 99.1222C81.5653 99.0455 81.7514 98.9318 81.9077 98.7812C82.0639 98.6278 82.1847 98.4375 82.2699 98.2102L83.2415 98.483C83.1392 98.8125 82.9673 99.1023 82.7259 99.3523C82.4844 99.5994 82.1861 99.7926 81.831 99.9318C81.4759 100.068 81.0767 100.136 80.6335 100.136ZM86.7997 100.153C86.3849 100.153 86.0085 100.075 85.6705 99.919C85.3324 99.7599 85.0639 99.5312 84.8651 99.233C84.6662 98.9318 84.5668 98.5682 84.5668 98.142C84.5668 97.767 84.6406 97.4631 84.7884 97.2301C84.9361 96.9943 85.1335 96.8097 85.3807 96.6761C85.6278 96.5426 85.9006 96.4432 86.1989 96.3778C86.5 96.3097 86.8026 96.2557 87.1065 96.2159C87.5043 96.1648 87.8267 96.1264 88.0739 96.1009C88.3239 96.0724 88.5057 96.0256 88.6193 95.9602C88.7358 95.8949 88.794 95.7812 88.794 95.6193V95.5852C88.794 95.1648 88.679 94.8381 88.4489 94.6051C88.2216 94.3722 87.8764 94.2557 87.4134 94.2557C86.9332 94.2557 86.5568 94.3608 86.2841 94.571C86.0114 94.7812 85.8196 95.0057 85.7088 95.2443L84.7543 94.9034C84.9247 94.5057 85.152 94.196 85.4361 93.9744C85.723 93.75 86.0355 93.5937 86.3736 93.5057C86.7145 93.4148 87.0497 93.3693 87.3793 93.3693C87.5895 93.3693 87.831 93.3949 88.1037 93.446C88.3793 93.4943 88.6449 93.5952 88.9006 93.7486C89.1591 93.902 89.3736 94.1335 89.544 94.4432C89.7145 94.7528 89.7997 95.1676 89.7997 95.6875V100H88.794V99.1136H88.7429C88.6747 99.2557 88.5611 99.4077 88.402 99.5696C88.2429 99.7315 88.0313 99.8693 87.767 99.983C87.5028 100.097 87.1804 100.153 86.7997 100.153ZM86.9531 99.25C87.3509 99.25 87.6861 99.1719 87.9588 99.0156C88.2344 98.8594 88.4418 98.6577 88.581 98.4105C88.723 98.1634 88.794 97.9034 88.794 97.6307V96.7102C88.7514 96.7614 88.6577 96.8082 88.5128 96.8509C88.3707 96.8906 88.206 96.9261 88.0185 96.9574C87.8338 96.9858 87.6534 97.0114 87.4773 97.0341C87.304 97.054 87.1634 97.071 87.0554 97.0852C86.794 97.1193 86.5497 97.1747 86.3224 97.2514C86.098 97.3253 85.9162 97.4375 85.777 97.5881C85.6406 97.7358 85.5724 97.9375 85.5724 98.1932C85.5724 98.5426 85.7017 98.8068 85.9602 98.9858C86.2216 99.1619 86.5526 99.25 86.9531 99.25ZM92.641 91.2727V100H91.6353V91.2727H92.641ZM100.602 100.136C99.9716 100.136 99.4276 99.9972 98.9702 99.7188C98.5156 99.4375 98.1648 99.0455 97.9176 98.5426C97.6733 98.0369 97.5511 97.4489 97.5511 96.7784C97.5511 96.108 97.6733 95.517 97.9176 95.0057C98.1648 94.4915 98.5085 94.0909 98.9489 93.804C99.392 93.5142 99.9091 93.3693 100.5 93.3693C100.841 93.3693 101.178 93.4261 101.51 93.5398C101.842 93.6534 102.145 93.8381 102.418 94.0938C102.69 94.3466 102.908 94.6818 103.07 95.0994C103.232 95.517 103.312 96.0312 103.312 96.642V97.0682H98.267V96.1989H102.29C102.29 95.8295 102.216 95.5 102.068 95.2102C101.923 94.9205 101.716 94.6918 101.446 94.5241C101.179 94.3565 100.864 94.2727 100.5 94.2727C100.099 94.2727 99.7528 94.3722 99.4602 94.571C99.1705 94.767 98.9474 95.0227 98.7912 95.3381C98.6349 95.6534 98.5568 95.9915 98.5568 96.3523V96.9318C98.5568 97.4261 98.642 97.8452 98.8125 98.1889C98.9858 98.5298 99.2259 98.7898 99.5327 98.9688C99.8395 99.1449 100.196 99.233 100.602 99.233C100.866 99.233 101.105 99.196 101.318 99.1222C101.534 99.0455 101.72 98.9318 101.876 98.7812C102.033 98.6278 102.153 98.4375 102.239 98.2102L103.21 98.483C103.108 98.8125 102.936 99.1023 102.695 99.3523C102.453 99.5994 102.155 99.7926 101.8 99.9318C101.445 100.068 101.045 100.136 100.602 100.136ZM109.479 94.9205L108.575 95.1761C108.518 95.0256 108.435 94.8793 108.324 94.7372C108.216 94.5923 108.068 94.473 107.881 94.3793C107.693 94.2855 107.453 94.2386 107.161 94.2386C106.76 94.2386 106.426 94.331 106.159 94.5156C105.895 94.6974 105.763 94.929 105.763 95.2102C105.763 95.4602 105.854 95.6577 106.036 95.8026C106.217 95.9474 106.501 96.0682 106.888 96.1648L107.859 96.4034C108.445 96.5455 108.881 96.7628 109.168 97.0554C109.455 97.3452 109.598 97.7187 109.598 98.1761C109.598 98.5511 109.49 98.8864 109.274 99.1818C109.061 99.4773 108.763 99.7102 108.379 99.8807C107.996 100.051 107.55 100.136 107.041 100.136C106.374 100.136 105.821 99.9915 105.384 99.7017C104.946 99.4119 104.669 98.9886 104.553 98.4318L105.507 98.1932C105.598 98.5455 105.77 98.8097 106.023 98.9858C106.278 99.1619 106.612 99.25 107.024 99.25C107.493 99.25 107.865 99.1506 108.141 98.9517C108.419 98.75 108.558 98.5085 108.558 98.2273C108.558 98 108.479 97.8097 108.32 97.6562C108.161 97.5 107.916 97.3835 107.587 97.3068L106.496 97.0511C105.896 96.9091 105.456 96.6889 105.175 96.3906C104.896 96.0895 104.757 95.7131 104.757 95.2614C104.757 94.892 104.861 94.5653 105.068 94.2812C105.278 93.9972 105.564 93.7741 105.925 93.6122C106.288 93.4503 106.7 93.3693 107.161 93.3693C107.808 93.3693 108.317 93.5114 108.686 93.7955C109.058 94.0795 109.322 94.4545 109.479 94.9205ZM113.958 93.4545V94.3068H110.566V93.4545H113.958ZM111.555 91.8864H112.561V98.125C112.561 98.4091 112.602 98.6222 112.684 98.7642C112.77 98.9034 112.877 98.9972 113.008 99.0455C113.142 99.0909 113.282 99.1136 113.43 99.1136C113.541 99.1136 113.632 99.108 113.703 99.0966C113.774 99.0824 113.831 99.071 113.873 99.0625L114.078 99.9659C114.01 99.9915 113.914 100.017 113.792 100.043C113.67 100.071 113.515 100.085 113.328 100.085C113.044 100.085 112.765 100.024 112.493 99.902C112.223 99.7798 111.998 99.5938 111.819 99.3438C111.643 99.0938 111.555 98.7784 111.555 98.3977V91.8864ZM117.397 100.153C116.983 100.153 116.606 100.075 116.268 99.919C115.93 99.7599 115.662 99.5312 115.463 99.233C115.264 98.9318 115.164 98.5682 115.164 98.142C115.164 97.767 115.238 97.4631 115.386 97.2301C115.534 96.9943 115.731 96.8097 115.978 96.6761C116.225 96.5426 116.498 96.4432 116.797 96.3778C117.098 96.3097 117.4 96.2557 117.704 96.2159C118.102 96.1648 118.424 96.1264 118.672 96.1009C118.922 96.0724 119.103 96.0256 119.217 95.9602C119.333 95.8949 119.392 95.7812 119.392 95.6193V95.5852C119.392 95.1648 119.277 94.8381 119.047 94.6051C118.819 94.3722 118.474 94.2557 118.011 94.2557C117.531 94.2557 117.154 94.3608 116.882 94.571C116.609 94.7812 116.417 95.0057 116.306 95.2443L115.352 94.9034C115.522 94.5057 115.75 94.196 116.034 93.9744C116.321 93.75 116.633 93.5937 116.971 93.5057C117.312 93.4148 117.647 93.3693 117.977 93.3693C118.187 93.3693 118.429 93.3949 118.701 93.446C118.977 93.4943 119.243 93.5952 119.498 93.7486C119.757 93.902 119.971 94.1335 120.142 94.4432C120.312 94.7528 120.397 95.1676 120.397 95.6875V100H119.392V99.1136H119.341C119.272 99.2557 119.159 99.4077 119 99.5696C118.841 99.7315 118.629 99.8693 118.365 99.983C118.1 100.097 117.778 100.153 117.397 100.153ZM117.551 99.25C117.949 99.25 118.284 99.1719 118.556 99.0156C118.832 98.8594 119.039 98.6577 119.179 98.4105C119.321 98.1634 119.392 97.9034 119.392 97.6307V96.7102C119.349 96.7614 119.255 96.8082 119.11 96.8509C118.968 96.8906 118.804 96.9261 118.616 96.9574C118.431 96.9858 118.251 97.0114 118.075 97.0341C117.902 97.054 117.761 97.071 117.653 97.0852C117.392 97.1193 117.147 97.1747 116.92 97.2514C116.696 97.3253 116.514 97.4375 116.375 97.5881C116.238 97.7358 116.17 97.9375 116.17 98.1932C116.17 98.5426 116.299 98.8068 116.558 98.9858C116.819 99.1619 117.15 99.25 117.551 99.25ZM125.08 93.4545V94.3068H121.688V93.4545H125.08ZM122.676 91.8864H123.682V98.125C123.682 98.4091 123.723 98.6222 123.805 98.7642C123.891 98.9034 123.999 98.9972 124.129 99.0455C124.263 99.0909 124.403 99.1136 124.551 99.1136C124.662 99.1136 124.753 99.108 124.824 99.0966C124.895 99.0824 124.952 99.071 124.994 99.0625L125.199 99.9659C125.131 99.9915 125.036 100.017 124.913 100.043C124.791 100.071 124.636 100.085 124.449 100.085C124.165 100.085 123.886 100.024 123.614 99.902C123.344 99.7798 123.119 99.5938 122.94 99.3438C122.764 99.0938 122.676 98.7784 122.676 98.3977V91.8864ZM129.266 100.136C128.636 100.136 128.092 99.9972 127.634 99.7188C127.18 99.4375 126.829 99.0455 126.582 98.5426C126.337 98.0369 126.215 97.4489 126.215 96.7784C126.215 96.108 126.337 95.517 126.582 95.0057C126.829 94.4915 127.173 94.0909 127.613 93.804C128.056 93.5142 128.573 93.3693 129.164 93.3693C129.505 93.3693 129.842 93.4261 130.174 93.5398C130.506 93.6534 130.809 93.8381 131.082 94.0938C131.354 94.3466 131.572 94.6818 131.734 95.0994C131.896 95.517 131.977 96.0312 131.977 96.642V97.0682H126.931V96.1989H130.954C130.954 95.8295 130.88 95.5 130.732 95.2102C130.587 94.9205 130.38 94.6918 130.11 94.5241C129.843 94.3565 129.528 94.2727 129.164 94.2727C128.763 94.2727 128.417 94.3722 128.124 94.571C127.835 94.767 127.612 95.0227 127.455 95.3381C127.299 95.6534 127.221 95.9915 127.221 96.3523V96.9318C127.221 97.4261 127.306 97.8452 127.477 98.1889C127.65 98.5298 127.89 98.7898 128.197 98.9688C128.504 99.1449 128.86 99.233 129.266 99.233C129.531 99.233 129.769 99.196 129.982 99.1222C130.198 99.0455 130.384 98.9318 130.54 98.7812C130.697 98.6278 130.817 98.4375 130.903 98.2102L131.874 98.483C131.772 98.8125 131.6 99.1023 131.359 99.3523C131.117 99.5994 130.819 99.7926 130.464 99.9318C130.109 100.068 129.71 100.136 129.266 100.136Z" fill="#606773"/>
<g opacity="0.64">
<rect x="92.0002" y="34" width="43.9999" height="43.9999" rx="22" fill="#565ED1"/>
<path d="M103.917 54.9175L112.942 47.325C113.281 47.0403 113.774 47.0383 114.115 47.3205L123.289 54.9175" stroke="white" stroke-width="1.375" stroke-linecap="round"/>
<path d="M121.611 53.5444V63.154C121.611 63.6595 121.201 64.0692 120.696 64.0692H118.312" stroke="white" stroke-width="1.375" stroke-linecap="round"/>
<path d="M114.503 63.1545V58.9626C114.503 58.7169 114.404 58.4816 114.229 58.3095L111.409 55.5413C111.053 55.1918 110.483 55.1918 110.127 55.5413L107.307 58.3095C107.132 58.4816 107.033 58.7169 107.033 58.9626V63.1545C107.033 63.66 107.443 64.0697 107.949 64.0697H113.588C114.093 64.0697 114.503 63.66 114.503 63.1545Z" fill="white" stroke="white" stroke-width="1.375"/>
<path d="M105.291 59.4932L110.287 54.901C110.649 54.5691 111.207 54.5809 111.554 54.9278L116.118 59.4932" stroke="white" stroke-width="1.375" stroke-linecap="round"/>
</g>
<g opacity="0.64">
<rect x="32.0002" y="34" width="43.9999" height="43.9999" rx="22" fill="#77CDD9"/>
<path d="M43.917 49.997C43.917 49.6304 44.2142 49.3333 44.5808 49.3333H47.8217V53.5503C47.8217 53.9169 47.5245 54.2141 47.1579 54.2141H44.5808C44.2142 54.2141 43.917 53.9169 43.917 53.5503V49.997Z" fill="white" stroke="white" stroke-width="1.375"/>
<path d="M62.0934 51.5841L59.6798 49.4951C59.5591 49.3907 59.4049 49.3333 59.2453 49.3333H47.8215V52.7498H61.6589C62.2736 52.7498 62.5581 51.9864 62.0934 51.5841Z" stroke="white" stroke-width="1.375"/>
<path opacity="0.8" d="M54.5376 65.1668V53.2185" stroke="white" stroke-width="1.375" stroke-linecap="round"/>
<path opacity="0.8" d="M50.5549 65.1668V53.2185" stroke="white" stroke-width="1.375" stroke-linecap="round"/>
<rect opacity="0.8" x="56.5288" y="59.8564" width="5.31034" height="5.31034" rx="0.916667" fill="white"/>
<path d="M58.8523 62.5115H59.5161" stroke="#77CDD9" stroke-width="0.916667" stroke-linecap="round" stroke-linejoin="round"/>
<rect x="57.1926" y="55.678" width="3.90466" height="1.95233" rx="0.976166" fill="white" stroke="white" stroke-width="1.375"/>
<path d="M59.1453 55.19V52.9937" stroke="white" stroke-width="1.375"/>
<path opacity="0.8" d="M47.8215 49.3333L50.751 46.4038C51.0171 46.1378 51.4508 46.1458 51.7068 46.4215L54.4107 49.3333" stroke="white" stroke-width="1.375"/>
</g>
<rect x="60" y="32" width="47.9999" height="47.9999" rx="24" fill="#F7D16D"/>
<rect x="60" y="32" width="47.9999" height="47.9999" rx="24" fill="#F7D16D"/>
<rect x="60" y="32" width="47.9999" height="47.9999" rx="24" fill="#5AA5FA"/>
<path d="M75.5 54.2047V65C75.5 65.2761 75.7239 65.5 76 65.5H81.5C82.0523 65.5 82.5 65.0523 82.5 64.5V52.419C82.5 51.7275 81.8149 51.2447 81.1637 51.4773L76.1637 53.263C75.7657 53.4051 75.5 53.7821 75.5 54.2047Z" fill="#C2DEFF"/>
<path d="M93.5 54.2047V65C93.5 65.2761 93.2761 65.5 93 65.5H87.5C86.9477 65.5 86.5 65.0523 86.5 64.5V52.419C86.5 51.7275 87.1851 51.2447 87.8363 51.4773L92.8363 53.263C93.2343 53.4051 93.5 53.7821 93.5 54.2047Z" fill="#C2DEFF"/>
<path d="M89.5364 61.7842H90.2864" stroke="white" stroke-width="1.5" stroke-linecap="round" stroke-linejoin="round"/>
<path d="M89.5364 57.1165H90.2864" stroke="white" stroke-width="1.5" stroke-linecap="round" stroke-linejoin="round"/>
<path d="M78.7478 62.0835H77.9978" stroke="white" stroke-width="1.5" stroke-linecap="round" stroke-linejoin="round"/>
<path d="M87.6014 64.6844V46.8164C87.6014 46.6882 87.5505 46.5652 87.4599 46.4746C87.3692 46.3839 87.2463 46.333 87.1181 46.333H81.3174C81.1892 46.333 81.0662 46.3839 80.9756 46.4746C80.8849 46.5652 80.834 46.6882 80.834 46.8164V64.6844" fill="white"/>
<path d="M84.0012 50.25H84.7512" stroke="#5AA5FA" stroke-width="1.5" stroke-linecap="round" stroke-linejoin="round"/>
<path d="M84.0012 57.334H84.7512" stroke="#C2DEFF" stroke-width="1.5" stroke-linecap="round" stroke-linejoin="round"/>
<path d="M84.0012 62.0835H84.7512" stroke="#C2DEFF" stroke-width="1.5" stroke-linecap="round" stroke-linejoin="round"/>
<path d="M94 65.3335L74 65.3335" stroke="white" stroke-width="1.5" stroke-linecap="round" stroke-linejoin="round"/>
</svg>
