<svg width="163" height="136" viewBox="0 0 163 136" fill="none" xmlns="http://www.w3.org/2000/svg">
<rect width="163" height="136" rx="16" fill="white"/>
<circle opacity="0.4" cx="118" cy="56" r="22" fill="#00B28C"/>
<path d="M111.583 63.3333L111.681 62.7046C111.857 61.5741 112.536 60.5758 113.603 60.1628C114.797 59.7006 116.52 59.1965 118.352 59.1965C120.185 59.1965 121.908 59.7006 123.102 60.1628C124.169 60.5758 124.848 61.5741 125.024 62.7046L125.122 63.3333" stroke="white" stroke-width="1.46667" stroke-linecap="round" stroke-linejoin="round"/>
<path d="M118.353 56.1881C120.43 56.1881 122.113 54.5044 122.113 52.4274C122.113 50.3505 120.43 48.6667 118.353 48.6667C116.276 48.6667 114.592 50.3505 114.592 52.4274C114.592 54.5044 116.276 56.1881 118.353 56.1881Z" stroke="white" stroke-width="1.46667" stroke-linecap="round" stroke-linejoin="round"/>
<circle opacity="0.4" cx="51" cy="56" r="22" fill="#00B28C"/>
<path d="M44.5833 63.3333L44.681 62.7046C44.8569 61.5741 45.5362 60.5758 46.6031 60.1628C47.7974 59.7006 49.5198 59.1965 51.3525 59.1965C53.1852 59.1965 54.9076 59.7006 56.1018 60.1628C57.1688 60.5758 57.8481 61.5741 58.0239 62.7046L58.1217 63.3333" stroke="white" stroke-width="1.46667" stroke-linecap="round" stroke-linejoin="round"/>
<path d="M51.3527 56.1881C53.4297 56.1881 55.1134 54.5044 55.1134 52.4274C55.1134 50.3505 53.4297 48.6667 51.3527 48.6667C49.2758 48.6667 47.592 50.3505 47.592 52.4274C47.592 54.5044 49.2758 56.1881 51.3527 56.1881Z" stroke="white" stroke-width="1.46667" stroke-linecap="round" stroke-linejoin="round"/>
<circle cx="84" cy="56" r="24" fill="#FA8A34"/>
<path d="M93.7538 57.6308C93.6923 57.6308 93.6308 57.6308 93.6308 57.6308L84.7077 59.3538L81.6308 58.1231L85.6923 57.0769C86.1846 56.9538 86.5538 56.5231 86.5538 56.0308C86.5538 55.5385 86.1231 55.0462 85.5692 54.9846L81.8769 55.0462C81.3231 55.0462 80.7692 54.9231 80.2769 54.6769C79.3538 54.2462 78.4923 54 77.6923 54C77.0769 54 76.4 54.1231 75.9692 54.3077C75.552 54.5163 74.8695 55.0343 74.2965 55.4497C74.1116 55.5838 74 55.7976 74 56.026V60.9666C74 61.4562 74.3544 61.8738 74.8375 61.9533L84.4615 63.5385C84.5846 63.6 84.8923 63.6 85.0154 63.6C85.3846 63.6 85.6923 63.5385 86 63.4154L94.2462 59.7846C94.8 59.5385 95.0462 58.9231 94.8615 58.3692C94.6769 57.9385 94.2461 57.6308 93.7538 57.6308Z" fill="white"/>
<circle cx="88.5" cy="50.5" r="2.8" fill="white" stroke="#6ED4BE" stroke-width="0.6"/>
<path d="M49.1928 94H48.136C48.0735 93.696 47.9641 93.429 47.8079 93.1989C47.6545 92.9688 47.467 92.7756 47.2454 92.6193C47.0266 92.4602 46.7837 92.3409 46.5167 92.2614C46.2496 92.1818 45.9712 92.142 45.6815 92.142C45.1531 92.142 44.6744 92.2756 44.2454 92.5426C43.8192 92.8097 43.4798 93.2031 43.2269 93.723C42.9769 94.2429 42.8519 94.8807 42.8519 95.6364C42.8519 96.392 42.9769 97.0298 43.2269 97.5497C43.4798 98.0696 43.8192 98.4631 44.2454 98.7301C44.6744 98.9972 45.1531 99.1307 45.6815 99.1307C45.9712 99.1307 46.2496 99.0909 46.5167 99.0114C46.7837 98.9318 47.0266 98.8139 47.2454 98.6577C47.467 98.4986 47.6545 98.304 47.8079 98.0739C47.9641 97.8409 48.0735 97.5739 48.136 97.2727H49.1928C49.1133 97.7187 48.9684 98.1179 48.7582 98.4702C48.5479 98.8224 48.2866 99.1222 47.9741 99.3693C47.6616 99.6136 47.3107 99.7997 46.9215 99.9276C46.5352 100.055 46.1218 100.119 45.6815 100.119C44.9371 100.119 44.2752 99.9375 43.6957 99.5739C43.1161 99.2102 42.6602 98.6932 42.3278 98.0227C41.9954 97.3523 41.8292 96.5568 41.8292 95.6364C41.8292 94.7159 41.9954 93.9205 42.3278 93.25C42.6602 92.5795 43.1161 92.0625 43.6957 91.6989C44.2752 91.3352 44.9371 91.1534 45.6815 91.1534C46.1218 91.1534 46.5352 91.2173 46.9215 91.3452C47.3107 91.473 47.6616 91.6605 47.9741 91.9077C48.2866 92.152 48.5479 92.4503 48.7582 92.8026C48.9684 93.152 49.1133 93.5511 49.1928 94ZM50.7642 100V93.4545H51.7358V94.4432H51.804C51.9233 94.1193 52.1392 93.8565 52.4517 93.6548C52.7642 93.4531 53.1165 93.3523 53.5085 93.3523C53.5824 93.3523 53.6747 93.3537 53.7855 93.3565C53.8963 93.3594 53.9801 93.3636 54.0369 93.3693V94.392C54.0028 94.3835 53.9247 94.3707 53.8026 94.3537C53.6832 94.3338 53.5568 94.3239 53.4233 94.3239C53.1051 94.3239 52.821 94.3906 52.571 94.5241C52.3239 94.6548 52.1278 94.8366 51.983 95.0696C51.8409 95.2997 51.7699 95.5625 51.7699 95.858V100H50.7642ZM57.6889 100.136C57.098 100.136 56.5795 99.9957 56.1335 99.7145C55.6903 99.4332 55.3438 99.0398 55.0938 98.5341C54.8466 98.0284 54.723 97.4375 54.723 96.7614C54.723 96.0795 54.8466 95.4844 55.0938 94.9759C55.3438 94.4673 55.6903 94.0724 56.1335 93.7912C56.5795 93.5099 57.098 93.3693 57.6889 93.3693C58.2798 93.3693 58.7969 93.5099 59.2401 93.7912C59.6861 94.0724 60.0327 94.4673 60.2798 94.9759C60.5298 95.4844 60.6548 96.0795 60.6548 96.7614C60.6548 97.4375 60.5298 98.0284 60.2798 98.5341C60.0327 99.0398 59.6861 99.4332 59.2401 99.7145C58.7969 99.9957 58.2798 100.136 57.6889 100.136ZM57.6889 99.233C58.1378 99.233 58.5071 99.1179 58.7969 98.8878C59.0866 98.6577 59.3011 98.3551 59.4403 97.9801C59.5795 97.6051 59.6491 97.1989 59.6491 96.7614C59.6491 96.3239 59.5795 95.9162 59.4403 95.5384C59.3011 95.1605 59.0866 94.8551 58.7969 94.6222C58.5071 94.3892 58.1378 94.2727 57.6889 94.2727C57.2401 94.2727 56.8707 94.3892 56.581 94.6222C56.2912 94.8551 56.0767 95.1605 55.9375 95.5384C55.7983 95.9162 55.7287 96.3239 55.7287 96.7614C55.7287 97.1989 55.7983 97.6051 55.9375 97.9801C56.0767 98.3551 56.2912 98.6577 56.581 98.8878C56.8707 99.1179 57.2401 99.233 57.6889 99.233ZM63.4503 100L61.456 93.4545H62.5128L63.9276 98.4659H63.9957L65.3935 93.4545H66.4673L67.848 98.4489H67.9162L69.331 93.4545H70.3878L68.3935 100H67.4048L65.973 94.9716H65.8707L64.4389 100H63.4503ZM73.9663 100.136C73.4208 100.136 72.9393 99.9986 72.5217 99.723C72.104 99.4446 71.7773 99.0526 71.5415 98.5469C71.3058 98.0384 71.1879 97.4375 71.1879 96.7443C71.1879 96.0568 71.3058 95.4602 71.5415 94.9545C71.7773 94.4489 72.1055 94.0582 72.5259 93.7827C72.9464 93.5071 73.4322 93.3693 73.9833 93.3693C74.4094 93.3693 74.7461 93.4403 74.9933 93.5824C75.2433 93.7216 75.4336 93.8807 75.5643 94.0597C75.6978 94.2358 75.8015 94.3807 75.8754 94.4943H75.9606V91.2727H76.9663V100H75.9947V98.9943H75.8754C75.8015 99.1136 75.6964 99.2642 75.56 99.446C75.4237 99.625 75.229 99.7855 74.9762 99.9276C74.7234 100.067 74.3867 100.136 73.9663 100.136ZM74.1026 99.233C74.506 99.233 74.8469 99.1278 75.1254 98.9176C75.4038 98.7045 75.6154 98.4105 75.7603 98.0355C75.9052 97.6577 75.9776 97.2216 75.9776 96.7273C75.9776 96.2386 75.9066 95.8111 75.7646 95.4446C75.6225 95.0753 75.4123 94.7884 75.1339 94.5838C74.8555 94.3764 74.5117 94.2727 74.1026 94.2727C73.6765 94.2727 73.3214 94.3821 73.0373 94.6009C72.756 94.8168 72.5444 95.1108 72.4023 95.483C72.2631 95.8523 72.1935 96.267 72.1935 96.7273C72.1935 97.1932 72.2646 97.6165 72.4066 97.9972C72.5515 98.375 72.7646 98.6761 73.0458 98.9006C73.3299 99.1222 73.6822 99.233 74.1026 99.233ZM83.3285 91.2727V100H82.3228V91.2727H83.3285ZM87.9148 100.136C87.2841 100.136 86.7401 99.9972 86.2827 99.7188C85.8281 99.4375 85.4773 99.0455 85.2301 98.5426C84.9858 98.0369 84.8636 97.4489 84.8636 96.7784C84.8636 96.108 84.9858 95.517 85.2301 95.0057C85.4773 94.4915 85.821 94.0909 86.2614 93.804C86.7045 93.5142 87.2216 93.3693 87.8125 93.3693C88.1534 93.3693 88.4901 93.4261 88.8224 93.5398C89.1548 93.6534 89.4574 93.8381 89.7301 94.0938C90.0028 94.3466 90.2202 94.6818 90.3821 95.0994C90.544 95.517 90.625 96.0312 90.625 96.642V97.0682H85.5795V96.1989H89.6023C89.6023 95.8295 89.5284 95.5 89.3807 95.2102C89.2358 94.9205 89.0284 94.6918 88.7585 94.5241C88.4915 94.3565 88.1761 94.2727 87.8125 94.2727C87.4119 94.2727 87.0653 94.3722 86.7727 94.571C86.483 94.767 86.2599 95.0227 86.1037 95.3381C85.9474 95.6534 85.8693 95.9915 85.8693 96.3523V96.9318C85.8693 97.4261 85.9545 97.8452 86.125 98.1889C86.2983 98.5298 86.5384 98.7898 86.8452 98.9688C87.152 99.1449 87.5085 99.233 87.9148 99.233C88.179 99.233 88.4176 99.196 88.6307 99.1222C88.8466 99.0455 89.0327 98.9318 89.1889 98.7812C89.3452 98.6278 89.4659 98.4375 89.5511 98.2102L90.5227 98.483C90.4205 98.8125 90.2486 99.1023 90.0071 99.3523C89.7656 99.5994 89.4673 99.7926 89.1122 99.9318C88.7571 100.068 88.358 100.136 87.9148 100.136ZM93.1605 96.0625V100H92.1548V93.4545H93.1264V94.4773H93.2116C93.3651 94.1449 93.598 93.8778 93.9105 93.6761C94.223 93.4716 94.6264 93.3693 95.1207 93.3693C95.5639 93.3693 95.9517 93.4602 96.2841 93.642C96.6165 93.821 96.875 94.0938 97.0597 94.4602C97.2443 94.8239 97.3366 95.2841 97.3366 95.8409V100H96.331V95.9091C96.331 95.3949 96.1974 94.9943 95.9304 94.7074C95.6634 94.4176 95.2969 94.2727 94.831 94.2727C94.5099 94.2727 94.223 94.3423 93.9702 94.4815C93.7202 94.6207 93.5227 94.8239 93.3778 95.0909C93.233 95.358 93.1605 95.6818 93.1605 96.0625ZM101.646 100.136C101.1 100.136 100.619 99.9986 100.201 99.723C99.7837 99.4446 99.457 99.0526 99.2212 98.5469C98.9854 98.0384 98.8675 97.4375 98.8675 96.7443C98.8675 96.0568 98.9854 95.4602 99.2212 94.9545C99.457 94.4489 99.7852 94.0582 100.206 93.7827C100.626 93.5071 101.112 93.3693 101.663 93.3693C102.089 93.3693 102.426 93.4403 102.673 93.5824C102.923 93.7216 103.113 93.8807 103.244 94.0597C103.377 94.2358 103.481 94.3807 103.555 94.4943H103.64V91.2727H104.646V100H103.674V98.9943H103.555C103.481 99.1136 103.376 99.2642 103.24 99.446C103.103 99.625 102.909 99.7855 102.656 99.9276C102.403 100.067 102.066 100.136 101.646 100.136ZM101.782 99.233C102.186 99.233 102.527 99.1278 102.805 98.9176C103.083 98.7045 103.295 98.4105 103.44 98.0355C103.585 97.6577 103.657 97.2216 103.657 96.7273C103.657 96.2386 103.586 95.8111 103.444 95.4446C103.302 95.0753 103.092 94.7884 102.814 94.5838C102.535 94.3764 102.191 94.2727 101.782 94.2727C101.356 94.2727 101.001 94.3821 100.717 94.6009C100.436 94.8168 100.224 95.1108 100.082 95.483C99.9428 95.8523 99.8732 96.267 99.8732 96.7273C99.8732 97.1932 99.9442 97.6165 100.086 97.9972C100.231 98.375 100.444 98.6761 100.725 98.9006C101.01 99.1222 101.362 99.233 101.782 99.233ZM106.627 100V93.4545H107.633V100H106.627ZM107.139 92.3636C106.943 92.3636 106.774 92.2969 106.632 92.1634C106.493 92.0298 106.423 91.8693 106.423 91.6818C106.423 91.4943 106.493 91.3338 106.632 91.2003C106.774 91.0668 106.943 91 107.139 91C107.335 91 107.502 91.0668 107.642 91.2003C107.784 91.3338 107.855 91.4943 107.855 91.6818C107.855 91.8693 107.784 92.0298 107.642 92.1634C107.502 92.2969 107.335 92.3636 107.139 92.3636ZM110.481 96.0625V100H109.475V93.4545H110.447V94.4773H110.532C110.685 94.1449 110.918 93.8778 111.231 93.6761C111.543 93.4716 111.947 93.3693 112.441 93.3693C112.884 93.3693 113.272 93.4602 113.604 93.642C113.937 93.821 114.195 94.0938 114.38 94.4602C114.565 94.8239 114.657 95.2841 114.657 95.8409V100H113.651V95.9091C113.651 95.3949 113.518 94.9943 113.251 94.7074C112.984 94.4176 112.617 94.2727 112.151 94.2727C111.83 94.2727 111.543 94.3423 111.29 94.4815C111.04 94.6207 110.843 94.8239 110.698 95.0909C110.553 95.358 110.481 95.6818 110.481 96.0625ZM119.137 102.591C118.651 102.591 118.233 102.528 117.884 102.403C117.534 102.281 117.243 102.119 117.01 101.918C116.78 101.719 116.597 101.506 116.461 101.278L117.262 100.716C117.353 100.835 117.468 100.972 117.607 101.125C117.746 101.281 117.936 101.416 118.178 101.53C118.422 101.646 118.742 101.705 119.137 101.705C119.665 101.705 120.101 101.577 120.445 101.321C120.789 101.065 120.961 100.665 120.961 100.119V98.7898H120.875C120.801 98.9091 120.696 99.0568 120.56 99.233C120.426 99.4062 120.233 99.5611 119.98 99.6974C119.73 99.831 119.392 99.8977 118.966 99.8977C118.438 99.8977 117.963 99.7727 117.543 99.5227C117.125 99.2727 116.794 98.9091 116.55 98.4318C116.309 97.9545 116.188 97.375 116.188 96.6932C116.188 96.0227 116.306 95.4389 116.542 94.9418C116.777 94.4418 117.105 94.0554 117.526 93.7827C117.946 93.5071 118.432 93.3693 118.983 93.3693C119.409 93.3693 119.748 93.4403 119.998 93.5824C120.25 93.7216 120.444 93.8807 120.577 94.0597C120.713 94.2358 120.819 94.3807 120.892 94.4943H120.995V93.4545H121.966V100.188C121.966 100.75 121.838 101.207 121.583 101.56C121.33 101.915 120.989 102.175 120.56 102.339C120.134 102.507 119.659 102.591 119.137 102.591ZM119.103 98.9943C119.506 98.9943 119.847 98.902 120.125 98.7173C120.404 98.5327 120.615 98.267 120.76 97.9205C120.905 97.5739 120.978 97.1591 120.978 96.6761C120.978 96.2045 120.907 95.7884 120.765 95.4276C120.623 95.0668 120.412 94.7841 120.134 94.5795C119.855 94.375 119.512 94.2727 119.103 94.2727C118.676 94.2727 118.321 94.3807 118.037 94.5966C117.756 94.8125 117.544 95.1023 117.402 95.4659C117.263 95.8295 117.194 96.233 117.194 96.6761C117.194 97.1307 117.265 97.5327 117.407 97.8821C117.551 98.2287 117.765 98.5014 118.046 98.7003C118.33 98.8963 118.682 98.9943 119.103 98.9943Z" fill="#606773"/>
</svg>
