<svg width="163" height="136" viewBox="0 0 163 136" fill="none" xmlns="http://www.w3.org/2000/svg">
<rect width="163" height="136" rx="16" fill="white"/>
<circle cx="83.0002" cy="54" r="24" fill="white"/>
<g opacity="0.64">
<rect x="89.0002" y="31" width="43.9999" height="43.9999" rx="22" fill="#617DEA"/>
<rect x="89.0002" y="31" width="43.9999" height="43.9999" rx="22" fill="#49C1B5"/>
<path d="M113.05 49.945V47.4736H118.702V43.708H103.312V47.4736H108.965V49.943C104.371 50.154 100.917 51.0638 100.917 52.1536C100.917 53.2434 104.373 54.1532 108.965 54.3655V62.2818H113.051V54.3648C117.637 54.1532 121.084 53.2441 121.084 52.1553C121.084 51.0664 117.637 50.1573 113.051 49.9457L113.05 49.945ZM113.051 53.6943V53.6923C112.936 53.6996 112.344 53.7352 111.025 53.7352C109.97 53.7352 109.228 53.7053 108.967 53.6917V53.695C104.908 53.5152 101.879 52.8085 101.879 51.9629C101.879 51.1172 104.909 50.4115 108.967 50.2314V52.9909C109.232 53.0092 109.993 53.054 111.042 53.054C112.302 53.054 112.936 53.0015 113.052 52.9909V50.2314C117.102 50.4118 120.125 51.1192 120.125 51.9619C120.125 52.8045 117.101 53.5122 113.052 53.6927" fill="white"/>
</g>
<g opacity="0.63">
<rect x="29.0002" y="31" width="44.0001" height="44.0001" rx="22" fill="#617DEA"/>
<path d="M50.7102 40.1667V49.3167L58.4434 52.7727L50.7102 40.1667Z" fill="white" fill-opacity="0.602"/>
<path d="M50.7127 40.1667L42.9795 52.7727L50.7127 49.3167V40.1667Z" fill="white"/>
<path d="M50.7102 58.6994V64.9167L58.4479 54.2102L50.7102 58.6994Z" fill="white" fill-opacity="0.602"/>
<path d="M50.7127 64.9167V58.6994L42.9795 54.2102L50.7127 64.9167Z" fill="white"/>
<path d="M50.7102 57.2612L58.4434 52.7719L50.7102 49.3159V57.2612Z" fill="white" fill-opacity="0.2"/>
<path d="M42.9795 52.7719L50.7127 57.2612V49.3159L42.9795 52.7719Z" fill="white" fill-opacity="0.602"/>
</g>
<rect x="57" y="29" width="47.9999" height="47.9999" rx="24" fill="#FA8A34"/>
<path d="M89.2069 50.8444C89.5502 48.5327 87.8029 47.29 85.4136 46.461L86.1887 43.3296L84.2963 42.8545L83.5418 45.9035C83.0443 45.7786 82.5334 45.6608 82.0257 45.5441L82.7856 42.475L80.8944 42L80.1188 45.1304C79.707 45.0359 79.3028 44.9425 78.9104 44.8443L78.9126 44.8345L76.3029 44.1781L75.7995 46.214C75.7995 46.214 77.2035 46.5381 77.1739 46.5582C77.9403 46.7509 78.0788 47.2618 78.0556 47.6668L77.1728 51.2342C77.2256 51.2478 77.294 51.2673 77.3695 51.2977C77.3064 51.282 77.2391 51.2646 77.1695 51.2478L75.9321 56.2452C75.8383 56.4797 75.6006 56.8315 75.0649 56.698C75.0837 56.7257 73.6894 56.3521 73.6894 56.3521L72.75 58.5341L75.2125 59.1524C75.6707 59.2681 76.1196 59.3891 76.5616 59.5031L75.7785 62.6704L77.6686 63.1455L78.4442 60.0118C78.9605 60.153 79.4618 60.2833 79.9522 60.406L79.1794 63.525L81.0717 64L81.8548 60.8387C85.0816 61.4538 87.508 61.2057 88.5294 58.2659C89.3524 55.8988 88.4884 54.5334 86.7907 53.6431C88.0271 53.3559 88.9584 52.5366 89.2069 50.8444ZM84.8833 56.9515C84.2985 59.3186 80.3419 58.0389 79.0592 57.7181L80.0983 53.522C81.381 53.8445 85.4945 54.4829 84.8833 56.9515ZM85.4686 50.8102C84.935 52.9634 81.6419 51.8694 80.5737 51.6012L81.5158 47.7955C82.584 48.0637 86.0243 48.5642 85.4686 50.8102Z" fill="white"/>
<path d="M70.1616 94H69.1048C69.0423 93.696 68.9329 93.429 68.7766 93.1989C68.6232 92.9688 68.4357 92.7756 68.2141 92.6193C67.9954 92.4602 67.7525 92.3409 67.4854 92.2614C67.2184 92.1818 66.94 92.142 66.6502 92.142C66.1218 92.142 65.6431 92.2756 65.2141 92.5426C64.788 92.8097 64.4485 93.2031 64.1957 93.723C63.9457 94.2429 63.8207 94.8807 63.8207 95.6364C63.8207 96.392 63.9457 97.0298 64.1957 97.5497C64.4485 98.0696 64.788 98.4631 65.2141 98.7301C65.6431 98.9972 66.1218 99.1307 66.6502 99.1307C66.94 99.1307 67.2184 99.0909 67.4854 99.0114C67.7525 98.9318 67.9954 98.8139 68.2141 98.6577C68.4357 98.4986 68.6232 98.304 68.7766 98.0739C68.9329 97.8409 69.0423 97.5739 69.1048 97.2727H70.1616C70.082 97.7187 69.9371 98.1179 69.7269 98.4702C69.5167 98.8224 69.2553 99.1222 68.9428 99.3693C68.6303 99.6136 68.2795 99.7997 67.8903 99.9276C67.5039 100.055 67.0906 100.119 66.6502 100.119C65.9059 100.119 65.244 99.9375 64.6644 99.5739C64.0849 99.2102 63.6289 98.6932 63.2965 98.0227C62.9641 97.3523 62.7979 96.5568 62.7979 95.6364C62.7979 94.7159 62.9641 93.9205 63.2965 93.25C63.6289 92.5795 64.0849 92.0625 64.6644 91.6989C65.244 91.3352 65.9059 91.1534 66.6502 91.1534C67.0906 91.1534 67.5039 91.2173 67.8903 91.3452C68.2795 91.473 68.6303 91.6605 68.9428 91.9077C69.2553 92.152 69.5167 92.4503 69.7269 92.8026C69.9371 93.152 70.082 93.5511 70.1616 94ZM71.733 100V93.4545H72.7045V94.4432H72.7727C72.892 94.1193 73.108 93.8565 73.4205 93.6548C73.733 93.4531 74.0852 93.3523 74.4773 93.3523C74.5511 93.3523 74.6435 93.3537 74.7543 93.3565C74.8651 93.3594 74.9489 93.3636 75.0057 93.3693V94.392C74.9716 94.3835 74.8935 94.3707 74.7713 94.3537C74.652 94.3338 74.5256 94.3239 74.392 94.3239C74.0739 94.3239 73.7898 94.3906 73.5398 94.5241C73.2926 94.6548 73.0966 94.8366 72.9517 95.0696C72.8097 95.2997 72.7386 95.5625 72.7386 95.858V100H71.733ZM77.0447 102.455C76.8743 102.455 76.7223 102.44 76.5888 102.412C76.4553 102.386 76.3629 102.361 76.3118 102.335L76.5675 101.449C76.8118 101.511 77.0277 101.534 77.2152 101.517C77.4027 101.5 77.5689 101.416 77.7138 101.266C77.8615 101.118 77.9964 100.878 78.1186 100.545L78.3061 100.034L75.8857 93.4545H76.9766L78.7834 98.6705H78.8516L80.6584 93.4545H81.7493L78.9709 100.955C78.8459 101.293 78.6911 101.572 78.5064 101.794C78.3217 102.018 78.1072 102.185 77.8629 102.293C77.6214 102.401 77.3487 102.455 77.0447 102.455ZM83.0767 102.455V93.4545H84.0483V94.4943H84.1676C84.2415 94.3807 84.3438 94.2358 84.4744 94.0597C84.608 93.8807 84.7983 93.7216 85.0455 93.5824C85.2955 93.4403 85.6335 93.3693 86.0597 93.3693C86.6108 93.3693 87.0966 93.5071 87.517 93.7827C87.9375 94.0582 88.2656 94.4489 88.5014 94.9545C88.7372 95.4602 88.8551 96.0568 88.8551 96.7443C88.8551 97.4375 88.7372 98.0384 88.5014 98.5469C88.2656 99.0526 87.9389 99.4446 87.5213 99.723C87.1037 99.9986 86.6222 100.136 86.0767 100.136C85.6563 100.136 85.3196 100.067 85.0668 99.9276C84.8139 99.7855 84.6193 99.625 84.483 99.446C84.3466 99.2642 84.2415 99.1136 84.1676 98.9943H84.0824V102.455H83.0767ZM84.0653 96.7273C84.0653 97.2216 84.1378 97.6577 84.2827 98.0355C84.4276 98.4105 84.6392 98.7045 84.9176 98.9176C85.196 99.1278 85.5369 99.233 85.9403 99.233C86.3608 99.233 86.7116 99.1222 86.9929 98.9006C87.277 98.6761 87.4901 98.375 87.6321 97.9972C87.777 97.6165 87.8494 97.1932 87.8494 96.7273C87.8494 96.267 87.7784 95.8523 87.6364 95.483C87.4972 95.1108 87.2855 94.8168 87.0014 94.6009C86.7202 94.3821 86.3665 94.2727 85.9403 94.2727C85.5313 94.2727 85.1875 94.3764 84.9091 94.5838C84.6307 94.7884 84.4205 95.0753 84.2784 95.4446C84.1364 95.8111 84.0653 96.2386 84.0653 96.7273ZM93.2358 93.4545V94.3068H89.8438V93.4545H93.2358ZM90.8324 91.8864H91.8381V98.125C91.8381 98.4091 91.8793 98.6222 91.9616 98.7642C92.0469 98.9034 92.1548 98.9972 92.2855 99.0455C92.419 99.0909 92.5597 99.1136 92.7074 99.1136C92.8182 99.1136 92.9091 99.108 92.9801 99.0966C93.0511 99.0824 93.108 99.071 93.1506 99.0625L93.3551 99.9659C93.2869 99.9915 93.1918 100.017 93.0696 100.043C92.9474 100.071 92.7926 100.085 92.6051 100.085C92.321 100.085 92.0426 100.024 91.7699 99.902C91.5 99.7798 91.2756 99.5938 91.0966 99.3438C90.9205 99.0938 90.8324 98.7784 90.8324 98.3977V91.8864ZM97.3374 100.136C96.7464 100.136 96.228 99.9957 95.782 99.7145C95.3388 99.4332 94.9922 99.0398 94.7422 98.5341C94.495 98.0284 94.3714 97.4375 94.3714 96.7614C94.3714 96.0795 94.495 95.4844 94.7422 94.9759C94.9922 94.4673 95.3388 94.0724 95.782 93.7912C96.228 93.5099 96.7464 93.3693 97.3374 93.3693C97.9283 93.3693 98.4453 93.5099 98.8885 93.7912C99.3345 94.0724 99.6811 94.4673 99.9283 94.9759C100.178 95.4844 100.303 96.0795 100.303 96.7614C100.303 97.4375 100.178 98.0284 99.9283 98.5341C99.6811 99.0398 99.3345 99.4332 98.8885 99.7145C98.4453 99.9957 97.9283 100.136 97.3374 100.136ZM97.3374 99.233C97.7862 99.233 98.1555 99.1179 98.4453 98.8878C98.7351 98.6577 98.9496 98.3551 99.0888 97.9801C99.228 97.6051 99.2976 97.1989 99.2976 96.7614C99.2976 96.3239 99.228 95.9162 99.0888 95.5384C98.9496 95.1605 98.7351 94.8551 98.4453 94.6222C98.1555 94.3892 97.7862 94.2727 97.3374 94.2727C96.8885 94.2727 96.5192 94.3892 96.2294 94.6222C95.9396 94.8551 95.7251 95.1605 95.5859 95.5384C95.4467 95.9162 95.3771 96.3239 95.3771 96.7614C95.3771 97.1989 95.4467 97.6051 95.5859 97.9801C95.7251 98.3551 95.9396 98.6577 96.2294 98.8878C96.5192 99.1179 96.8885 99.233 97.3374 99.233Z" fill="#606773"/>
</svg>
