<svg width="164" height="136" viewBox="0 0 164 136" fill="none" xmlns="http://www.w3.org/2000/svg">
<rect width="164" height="136" rx="16" fill="white"/>
<rect x="92" y="33" width="44" height="44" rx="22" fill="#06070A"/>
<path d="M111.25 47.8013V43.5894H116.482V47.8013H111.25ZM111.25 66.9169V49.6545H116.482V66.9105L111.25 66.9169Z" fill="white"/>
<g opacity="0.72">
<rect x="31.9998" y="33" width="44.0001" height="44.0001" rx="22" fill="#193989"/>
<g clip-path="url(#clip0_8_5115)">
<path d="M57.584 57.8486L56.7892 58.6489L56.0164 57.8541L55.5998 56.6175L54.4159 56.2092L54.4137 55.4392L53.6437 55.4415L53.2376 57.3953L53.6542 58.6594L51.8419 59.4624L51.2892 58.6672L51.6714 57.8679L51.6687 57.0154L50.4862 57.0195L48.9242 58.6746L47.7408 58.2937L47.7348 56.6437L45.6714 56.3201L44.1891 57.1226L43.3077 56.7404L43.3022 55.0633L44.0984 54.6751L47.2558 53.0975L47.7243 53.4812L48.9036 52.295L48.9008 51.5245L50.4628 49.952L51.2553 48.2717L52.4309 46.3156L54.3825 45.9241L55.18 45.9214L55.1823 46.6914L56.7553 48.2539L56.7603 49.9314L59.2161 52.2611L61.5861 53.8478L62.7696 54.2292L63.1862 55.4103L64.7564 56.1757L63.9612 56.975L63.1917 56.9778L63.1889 56.1808L62.0051 55.799L60.0186 53.8533L58.4484 53.0609L56.7631 50.7018L55.9908 49.9336L56.3717 48.6677L55.185 47.4889L54.3898 48.2612L54.3953 49.9391L53.6281 50.7119L55.2006 52.2739L54.4059 53.0737L56.0059 54.6362L56.0087 55.4337L56.7837 56.9984L57.5812 56.9961L58.4585 56.1959L58.045 55.8122L57.5734 54.6311L58.4534 54.6284L59.2285 56.1936L60.0287 56.9883L57.584 57.8486Z" fill="white"/>
<path d="M43.3316 64.0556L43.3179 59.8755L44.1965 59.4878L44.2116 64.0533L43.3316 64.0556Z" fill="white"/>
<path d="M47.8416 64.041C46.9616 64.0437 46.9616 64.0437 46.9616 64.0437C46.9551 62.2283 46.9551 62.2282 46.9551 62.2282C46.9533 61.6787 46.7333 61.5142 46.4033 61.5151C46.0183 61.5165 45.8538 61.6824 45.8556 62.2319C45.8615 64.0469 45.8615 64.0469 45.8615 64.0469C45.0095 64.0497 45.0095 64.0497 45.0095 64.0497C44.998 60.7226 44.998 60.7226 44.998 60.7226C45.8505 60.7199 45.8505 60.7199 45.8505 60.7199C45.8515 60.9674 45.8515 60.9674 45.8515 60.9674C46.0155 60.8019 46.2351 60.6635 46.6476 60.6621C47.4176 60.6594 47.8319 61.208 47.8351 62.143" fill="white"/>
<path d="M51.3783 60.7014C50.2068 64.0335 50.2068 64.0335 50.2068 64.0335C49.3268 64.0363 49.3268 64.0363 49.3268 64.0363C48.1333 60.7124 48.1333 60.7124 48.1333 60.7124C49.0963 60.7092 49.0963 60.7092 49.0963 60.7092C49.5683 62.2199 49.5683 62.2199 49.5683 62.2199C49.6522 62.5224 49.7081 62.8524 49.7906 62.9894C49.7902 62.8519 49.8722 62.5215 49.9529 62.2185C50.4158 60.7046 50.4158 60.7046 50.4158 60.7046" fill="white"/>
<path d="M53.7471 61.959C53.6637 61.6565 53.4978 61.4099 53.1128 61.4108C52.7003 61.4122 52.4812 61.6602 52.3996 61.9636M53.204 64.0779C52.2411 64.0811 51.5242 63.3959 51.521 62.3509C51.5173 61.3329 52.2301 60.6431 53.1101 60.6404C54.0451 60.6376 54.5978 61.4058 54.601 62.3408C54.6015 62.5054 54.6015 62.5054 54.6019 62.6708C52.4019 62.6781 52.4019 62.6781 52.4019 62.6781C52.4858 63.0627 52.8713 63.2268 53.2013 63.2254C53.3388 63.2249 53.6688 63.1411 53.8329 62.9761C54.4397 63.4692 54.4397 63.4692 54.4397 63.4692C54.139 63.9376 53.507 64.077 53.204 64.0779Z" fill="white"/>
<path d="M56.5019 63.2974C56.8044 63.2965 56.9694 63.2136 56.9689 63.0486C56.968 62.829 56.6655 62.747 56.5005 62.7474C55.8675 62.5847 55.0696 62.5045 55.0668 61.6525C55.065 61.02 55.6961 60.6322 56.4111 60.6304C56.8791 60.629 57.3466 60.7651 57.678 61.0117C57.2123 61.6456 57.2123 61.6456 57.2123 61.6456C56.9643 61.4815 56.6614 61.3999 56.4139 61.4008C56.0289 61.4018 55.9464 61.4847 55.9468 61.6497C55.9473 61.7872 56.4148 61.8679 56.6632 61.9499C57.2962 62.1126 57.8466 62.2758 57.8489 62.9633C57.8517 63.6783 57.1376 64.0651 56.4226 64.0679C55.8726 64.0697 55.4046 63.8516 54.9912 63.6054C55.4844 63.0536 55.4844 63.0536 55.4844 63.0536C55.7864 63.2172 56.1169 63.2988 56.5019 63.2974Z" fill="white"/>
<path d="M59.961 61.4709C59.4935 61.4723 59.1098 61.8586 59.1112 62.3261C59.1126 62.8211 59.4994 63.2048 59.9665 63.2034C60.2965 63.2025 60.5156 63.0366 60.6801 62.8161C61.3969 63.3634 61.3969 63.3634 61.3969 63.3634C61.0683 63.7497 60.5192 64.0536 59.9692 64.0554C59.0342 64.0582 58.2344 63.2914 58.2312 62.3289C58.228 61.3939 59.0232 60.6211 59.9582 60.6179C60.5082 60.6161 61.0591 60.9168 61.3905 61.3008C60.6769 61.8531 60.6769 61.8531 60.6769 61.8531C60.5114 61.6345 60.2905 61.47 59.961 61.4709Z" fill="white"/>
<path d="M64.1435 62.3101C64.1422 61.8422 63.8108 61.4585 63.3433 61.4599C62.7933 61.4617 62.4926 61.8477 62.4935 62.3156C62.4954 62.8106 62.7988 63.1942 63.3488 63.1929C63.8167 63.191 64.1454 62.8051 64.1435 62.3101ZM64.996 62.3069C64.9993 63.2694 64.3145 64.0412 63.3515 64.0445C62.4165 64.0477 61.6167 63.2804 61.6135 62.3179C61.6103 61.3829 62.4055 60.6097 63.3405 60.6069C64.303 60.6042 64.9928 61.3719 64.996 62.3069Z" fill="white"/>
</g>
</g>
<rect x="60" y="31" width="47.9999" height="47.9999" rx="24" fill="#96151D"/>
<path d="M72.5 43.0385V43.2828C73.8634 43.6174 74.5284 45.9967 74.5284 45.9967L79.8103 60.7238C81.2667 64.8686 84.003 65.6846 84.003 65.6846L87.3817 67L95.5 43H89.0752V43.195C91.4039 44.1024 90.5339 46.3938 90.5339 46.3938L86.2769 60.0113L80.5206 43.0385H72.5Z" fill="white"/>
<path d="M69.465 101V92.2727H74.7321V93.2102H70.5218V96.1591H74.4593V97.0966H70.5218V100.062H74.8002V101H69.465ZM76.1596 93.2102V92.2727H82.7051V93.2102H79.9608V101H78.9039V93.2102H76.1596ZM84.3361 101V92.2727H89.5691V93.2102H85.3929V96.1591H89.177V97.0966H85.3929V101H84.3361ZM95.8791 95.9205L94.9757 96.1761C94.9189 96.0256 94.835 95.8793 94.7243 95.7372C94.6163 95.5923 94.4686 95.473 94.2811 95.3793C94.0936 95.2855 93.8535 95.2386 93.5609 95.2386C93.1603 95.2386 92.8265 95.331 92.5595 95.5156C92.2953 95.6974 92.1632 95.929 92.1632 96.2102C92.1632 96.4602 92.2541 96.6577 92.4359 96.8026C92.6177 96.9474 92.9018 97.0682 93.2882 97.1648L94.2598 97.4034C94.845 97.5455 95.2811 97.7628 95.568 98.0554C95.8549 98.3452 95.9984 98.7187 95.9984 99.1761C95.9984 99.5511 95.8904 99.8864 95.6745 100.182C95.4615 100.477 95.1632 100.71 94.7797 100.881C94.3961 101.051 93.9501 101.136 93.4416 101.136C92.774 101.136 92.2214 100.991 91.7839 100.702C91.3464 100.412 91.0694 99.9886 90.9529 99.4318L91.9075 99.1932C91.9984 99.5455 92.1703 99.8097 92.4231 99.9858C92.6788 100.162 93.0126 100.25 93.4245 100.25C93.8933 100.25 94.2654 100.151 94.541 99.9517C94.8194 99.75 94.9586 99.5085 94.9586 99.2273C94.9586 99 94.8791 98.8097 94.72 98.6562C94.5609 98.5 94.3166 98.3835 93.987 98.3068L92.8961 98.0511C92.2967 97.9091 91.8564 97.6889 91.5751 97.3906C91.2967 97.0895 91.1575 96.7131 91.1575 96.2614C91.1575 95.892 91.2612 95.5653 91.4686 95.2812C91.6788 94.9972 91.9643 94.7741 92.3251 94.6122C92.6887 94.4503 93.1007 94.3693 93.5609 94.3693C94.2086 94.3693 94.7172 94.5114 95.0865 94.7955C95.4586 95.0795 95.7228 95.4545 95.8791 95.9205Z" fill="#606773"/>
<defs>
<clipPath id="clip0_8_5115">
<rect width="22.0001" height="18.3334" fill="white" transform="translate(42.9998 45.8335)"/>
</clipPath>
</defs>
</svg>
