<svg width="62" height="82" viewBox="0 0 62 82" fill="none" xmlns="http://www.w3.org/2000/svg">
<path d="M61.0277 32.7981C62.3008 24.2256 55.8211 19.6172 46.961 16.543L49.8351 4.93048L42.8177 3.16888L40.0196 14.4754C38.1748 14.0123 36.28 13.5754 34.3973 13.1426L37.2154 1.76161L30.202 0L27.3259 11.6085C25.799 11.2582 24.2999 10.9119 22.8449 10.5475L22.8529 10.5112L13.1753 8.07721L11.3085 15.6269C11.3085 15.6269 16.5151 16.8289 16.4052 16.9034C19.2473 17.6181 19.7609 19.5125 19.675 21.0144L16.4012 34.2436C16.597 34.2939 16.8509 34.3664 17.1307 34.4791C16.8968 34.4208 16.647 34.3563 16.3892 34.2939L11.8002 52.826C11.4524 53.6957 10.571 55.0003 8.58433 54.5051C8.65428 54.6077 3.4837 53.2226 3.4837 53.2226L0 61.3139L9.13197 63.607C10.8308 64.0359 12.4957 64.4848 14.1347 64.9076L11.2306 76.653L18.2399 78.4146L21.116 66.794C23.0308 67.3175 24.8896 67.8007 26.7083 68.2557L23.8422 79.8218L30.8596 81.5835L33.7637 69.8602C45.7298 72.1413 54.7278 71.2212 58.5153 60.3194C61.5673 51.5415 58.3634 46.4782 52.0676 43.1764C56.6526 42.1114 60.1063 39.0734 61.0277 32.7981ZM44.9943 55.4453C42.8257 64.2231 28.1534 59.4778 23.3965 58.288L27.25 42.7275C32.0068 43.9234 47.2608 46.291 44.9943 55.4453ZM47.1648 32.6712C45.1861 40.6558 32.9742 36.5991 29.0128 35.6046L32.5065 21.4916C36.4679 22.4861 49.2255 24.3424 47.1648 32.6712Z" fill="white"/>
</svg>
