<svg width="48" height="48" viewBox="0 0 48 48" fill="none" xmlns="http://www.w3.org/2000/svg">
<rect width="47.9999" height="47.9999" rx="24" fill="#FA8A34"/>
<path d="M27.375 19.8749L30 19.8749C31.0933 19.8759 32.1415 20.3109 32.9143 21.0844C33.6871 21.8579 34.1211 22.9065 34.1211 23.9999C34.1211 25.0932 33.6871 26.1419 32.9143 26.9153C32.1415 27.6888 31.0933 28.1238 30 28.1249L27.3749 28.1249" stroke="#00A385" stroke-width="1.5" stroke-linecap="round" stroke-linejoin="round"/>
<path d="M20.6249 28.1251L17.9999 28.1251C17.458 28.1254 16.9213 28.019 16.4205 27.8118C15.9198 27.6047 15.4647 27.3009 15.0814 26.9178C14.6981 26.5348 14.394 26.0799 14.1866 25.5793C13.9791 25.0786 13.8723 24.542 13.8723 24.0001C13.8723 23.4582 13.9791 22.9216 14.1866 22.421C14.394 21.9203 14.6981 21.4655 15.0814 21.0824C15.4647 20.6993 15.9198 20.3955 16.4205 20.1884C16.9213 19.9812 17.458 19.8748 17.9999 19.8751L20.6249 19.8751" stroke="#00A385" stroke-width="1.5" stroke-linecap="round" stroke-linejoin="round"/>
<path d="M21.4999 24H26.9999" stroke="#00A385" stroke-width="1.5" stroke-linecap="round"/>
</svg>
