<svg width="178" height="178" viewBox="0 0 178 178" fill="none" xmlns="http://www.w3.org/2000/svg">
<rect width="178" height="178" rx="41.9999" fill="#FA8A34"/>
<path d="M119.434 81.0064C120.707 72.434 114.227 67.8256 105.367 64.7514L108.241 53.1389L101.224 51.3773L98.4258 62.6837C96.581 62.2207 94.6863 61.7838 92.8035 61.351L95.6217 49.97L88.6083 48.2084L85.7322 59.8168C84.2052 59.4665 82.7062 59.1203 81.2512 58.7559L81.2591 58.7196L71.5815 56.2856L69.7148 63.8353C69.7148 63.8353 74.9213 65.0372 74.8114 65.1117C77.6535 65.8264 78.1672 67.7209 78.0812 69.2228L74.8074 82.452C75.0033 82.5023 75.2571 82.5748 75.5369 82.6875C75.3031 82.6291 75.0532 82.5647 74.7954 82.5023L70.2065 101.034C69.8587 101.904 68.9773 103.209 66.9906 102.713C67.0605 102.816 61.8899 101.431 61.8899 101.431L58.4062 109.522L67.5382 111.815C69.2371 112.244 70.902 112.693 72.5409 113.116L69.6368 124.861L76.6462 126.623L79.5223 115.002C81.437 115.526 83.2958 116.009 85.1146 116.464L82.2485 128.03L89.2659 129.792L92.1699 118.069C104.136 120.35 113.134 119.43 116.922 108.528C119.974 99.7499 116.77 94.6866 110.474 91.3848C115.059 90.3198 118.513 87.2818 119.434 81.0064ZM103.401 103.654C101.232 112.431 86.5596 107.686 81.8028 106.496L85.6562 90.9359C90.4131 92.1317 105.667 94.4993 103.401 103.654ZM105.571 80.8796C103.592 88.8642 91.3805 84.8075 87.4191 83.8129L90.9128 69.7C94.8742 70.6945 107.632 72.5507 105.571 80.8796Z" fill="white"/>
</svg>
