<svg width="27" height="27" viewBox="0 0 27 27" fill="none" xmlns="http://www.w3.org/2000/svg">
<path fill-rule="evenodd" clip-rule="evenodd" d="M22.7515 15.1723L21.2813 13.7021V20.2668V20.2925C21.2814 20.7432 21.2814 21.1194 21.2563 21.4267C21.2301 21.7472 21.1734 22.0482 21.0285 22.3327C20.806 22.7693 20.451 23.1243 20.0144 23.3467C19.7299 23.4917 19.4289 23.5483 19.1084 23.5745C18.8011 23.5996 18.4249 23.5996 17.9742 23.5996H17.9485H10.0614H10.0357C9.58503 23.5996 9.20884 23.5996 8.90152 23.5745C8.58099 23.5483 8.28006 23.4917 7.9955 23.3467C7.5589 23.1243 7.20394 22.7693 6.98148 22.3327C6.83649 22.0482 6.77987 21.7472 6.75368 21.4267C6.72857 21.1194 6.72858 20.7432 6.72858 20.2925L6.72859 20.2668V13.7051L5.2614 15.1723C4.84952 15.5841 4.18173 15.5841 3.76985 15.1723C3.35797 14.7604 3.35797 14.0926 3.76985 13.6807L12.3061 5.14448L12.3279 5.12266L12.3279 5.12263C12.4759 4.97462 12.6281 4.82231 12.7693 4.7025C12.9268 4.56879 13.1383 4.41484 13.4198 4.32338C13.8011 4.1995 14.2118 4.1995 14.5931 4.32338C14.8746 4.41484 15.0861 4.56879 15.2436 4.7025C15.3847 4.82231 15.537 4.97463 15.685 5.12264L15.7068 5.14448L24.243 13.6807C24.6549 14.0926 24.6549 14.7604 24.243 15.1723C23.8311 15.5841 23.1634 15.5841 22.7515 15.1723Z" fill="#FA8A34"/>
</svg>
