<svg width="27" height="27" viewBox="0 0 27 27" fill="none" xmlns="http://www.w3.org/2000/svg">
<circle cx="13.5" cy="8.4375" r="5.0625" fill="#FA8A34"/>
<path d="M19.7335 18.9677C18.1507 18.3478 15.8356 17.6582 13.3696 17.6582C10.9037 17.6582 8.58855 18.3478 7.00574 18.9677C5.64598 19.5002 4.77903 20.7735 4.55456 22.2165C4.47971 22.6977 4.85188 23.1322 5.33891 23.1322H21.4003C21.8874 23.1322 22.2595 22.6977 22.1847 22.2165C21.9602 20.7735 21.0933 19.5002 19.7335 18.9677Z" fill="#FA8A34"/>
<path d="M13.369 13.6793C16.1174 13.6793 18.3454 11.4513 18.3454 8.70295C18.3454 5.95457 16.1174 3.72656 13.369 3.72656C10.6206 3.72656 8.39258 5.95457 8.39258 8.70295C8.39258 11.4513 10.6206 13.6793 13.369 13.6793Z" fill="#FA8A34" stroke="#FA8A34" stroke-width="1.6875" stroke-linecap="round" stroke-linejoin="round"/>
</svg>
